<?xml version="1.0" encoding="utf-8"?>
<!-- Generator: Adobe Illustrator 14.0.0, SVG Export Plug-In . SVG Version: 6.00 Build 43363)  -->
<!DOCTYPE svg PUBLIC "-//W3C//DTD SVG 1.1//EN" "http://www.w3.org/Graphics/SVG/1.1/DTD/svg11.dtd">
<svg version="1.1" id="Layer_1" xmlns="http://www.w3.org/2000/svg" xmlns:xlink="http://www.w3.org/1999/xlink" x="0px" y="0px"
	 width="33.624px" height="30.438px" viewBox="0 0 33.624 30.438" enable-background="new 0 0 33.624 30.438" xml:space="preserve">
<g>
	<path fill="#FFFFFF" d="M32.959,15.641c-0.944-0.484-2.088-0.433-3.181-0.257c-0.228,0.038-0.682,0.164-0.895,0.049
		c-0.045-0.025-0.038-0.023-0.064-0.063c0.156-0.201,0.41-0.3,0.559-0.497c0.215-0.283,0.363-0.684,0.496-1.042
		c0.113-0.306,0.133-0.751-0.208-0.849c-0.539-0.156-0.856,0.648-0.991,0.961c-0.298,0.69-0.925,1.721-1.901,1.442
		c-0.011-0.016-0.021-0.032-0.031-0.048c0.114-0.211,0.355-0.297,0.495-0.481c0.341-0.449,0.715-1.062,0.895-1.634
		c0.116-0.375,0.087-1.049-0.257-1.155c-0.519-0.161-0.672,0.477-0.767,0.786c-0.305,0.993-0.502,2-1.422,2.373
		c-1.184,0.479-1.838-0.727-2.749-0.898c-0.762-0.144-1.251,0.54-1.661,0.77c-0.31,0.172-0.714,0.062-1.12,0.096
		c-0.002-0.309-0.069-0.541-0.095-0.802c0.774-0.118,1.725-0.072,2.509-0.272c1.852-0.475,3.232-1.218,4.426-2.373
		c0.339-0.329,0.973-0.932,1.15-1.378c0-0.005,0-0.011,0-0.016c-0.402-0.103-1.048-0.086-1.518-0.049
		c-2.511,0.204-4.013,0.913-5.689,2.068c-0.437,0.347-0.873,0.695-1.31,1.042c-0.134-0.248-0.367-0.565-0.607-0.706
		c0-0.011,0-0.021,0-0.032c0.171-0.234,0.376-0.483,0.623-0.641c0.599-0.381,1.284-0.477,1.662-1.074
		c0.41-0.647,0.084-1.796,0.719-2.212c0.523-0.344,1.366-0.615,2.014-0.305c0.255,0.171,0.511,0.342,0.767,0.513
		c0.283,0.163,0.552,0.053,0.655-0.193c0.453-1.076-0.883-1.372-1.773-1.362c-0.325,0.043-0.65,0.086-0.975,0.129
		c-0.065-0.038-0.097-0.107-0.127-0.177c0.203-0.379,1.391-0.87,1.981-0.722C24.981,6.735,25.234,6.997,25.767,7
		c0.165-0.147,0.206-0.307,0.145-0.561c-0.14-0.566-0.595-0.746-1.167-0.818c-0.349-0.044-0.564,0.124-0.863,0.096
		c-0.048-0.072-0.087-0.108-0.096-0.225c0.25-0.279,0.583-0.472,0.879-0.705c0.636-0.5,1.226-1.25,1.518-2.084
		c0.121-0.343,0.405-1.288,0.016-1.523c-0.412-0.248-0.844,0.148-1.134,0.353c-0.733,0.52-1.123,1.292-1.502,2.165
		c-0.139,0.321-0.242,0.964-0.527,1.138c-0.034,0.023-0.021,0.037-0.063,0.016c-0.155-0.108-0.096-0.493-0.16-0.689
		c-0.109-0.329-0.631-1.066-0.896-1.234c-0.185-0.118-0.512-0.135-0.638,0.048c-0.149,0.215-0.09,0.577,0.016,0.786
		c0.289,0.57,0.726,0.923,0.927,1.619c0.13,0.452,0.029,1.143-0.32,1.266c-0.016-0.005-0.032-0.011-0.047-0.016
		c-0.136-0.826-0.71-1.976-1.247-2.389c-0.179-0.137-0.792-0.493-1.023-0.16c-0.3,0.433,0.211,0.885,0.415,1.09
		c0.5,0.502,1.556,1.447,1.231,2.469c-0.398,1.252-1.523,0.995-2.125,1.812c-0.172,0.232-0.355,0.794-0.272,1.234
		c0.038,0.199,0.149,0.436,0.096,0.705c-0.075,0.385-0.383,0.559-0.447,0.898c-0.254-0.087-0.465-0.235-0.751-0.305
		c0.182-0.363,0.363-0.726,0.543-1.09c0.513-1.219,1.18-3.075,0.911-4.857c-0.094-0.622-0.196-1.301-0.383-1.876
		c-0.155-0.396-0.31-0.791-0.463-1.188c-0.022-0.016-0.043-0.032-0.064-0.048c-0.512,0.877-1.064,1.688-1.438,2.741
		c-0.644,1.818-0.464,4.21-0.16,6.156c0,0.005,0,0.011,0,0.016c-0.309,0.086-0.63,0.079-0.895,0.177
		c-0.497-0.193-0.107-1.864-0.255-2.405c-0.053-0.192-0.116-0.433-0.224-0.577c-0.487-0.651-1.455-0.699-1.455-1.86
		c0-0.261,0.006-0.497,0.08-0.689c0.123-0.219,0.244-0.438,0.367-0.658c0.333-0.479,1.118-0.483,1.391-1.026
		c-0.007-0.579-0.701-0.869-1.183-0.577c-0.686,0.416-1.076,1.161-1.342,2.004c-0.044,0.028-0.189,0.071-0.255,0
		c-0.13-0.169-0.084-0.801-0.032-1.026c0.077-0.331,0.131-0.656,0.303-0.897c0.279-0.392,0.77-0.543,1.023-0.978
		c-0.02-0.418-0.643-0.57-1.039-0.401c-0.507,0.216-0.817,0.762-0.959,1.347c-0.065,0.04-0.133,0.053-0.255,0.048
		C11.715,3.969,11.783,3.24,11.661,2.8c-0.254-0.909-0.608-1.619-1.183-2.196c-0.17-0.172-0.658-0.734-1.055-0.577
		C9.002,0.194,9.054,1.101,9.168,1.614c0.186,0.834,0.708,1.467,1.149,2.068c0.198,0.27,0.641,0.579,0.656,0.994
		c-0.011,0.011-0.021,0.022-0.032,0.033c-0.264-0.027-0.411-0.171-0.64-0.225c-0.413-0.097-0.88,0.031-1.247,0.097
		C8.763,4.633,8.309,4.791,8.478,5.207c0.283,0.693,1.296,0.181,1.982,0.289c0.735,0.116,1.273,0.307,1.517,0.914
		c-0.004,0.038-0.01,0.075-0.016,0.112c-0.255,0.028-0.559-0.155-0.847-0.208c-0.673-0.126-1.75,0.038-2.109,0.257
		C8.842,6.669,8.474,6.875,8.573,7.211C8.661,7.506,9.114,7.604,9.501,7.5c0.802-0.216,1.938-0.604,2.732-0.112
		c0.307,0.19,0.641,0.668,0.719,1.074c0.127,0.653-0.204,1.348,0.048,1.908c0.141,0.311,0.56,0.688,0.879,0.817
		c0.208,0.075,0.415,0.15,0.623,0.224c0.257,0.172,0.508,0.599,0.608,0.914c-0.255,0.104-0.431,0.313-0.64,0.465
		c-0.213-0.326-0.426-0.652-0.639-0.978c-0.267-0.337-0.533-0.674-0.799-1.011c-0.836-1.099-2.533-2.182-4.011-2.646
		C8.58,8.017,8.036,7.986,7.63,7.882C7.428,7.832,7.241,7.778,6.942,7.786c0.15,0.606,0.691,1.339,1.023,1.812
		c1.034,1.471,2.424,2.563,4.154,3.335c0.53,0.236,1.096,0.54,1.693,0.705c-0.005,0.261-0.268,0.549-0.288,0.898
		c-0.004,0.005-0.01,0.011-0.016,0.016c-1.161-0.106-1.462-0.886-2.525-1.106c-0.478-0.099-0.852,0.233-1.167,0.352
		c-0.788,0.299-1.519,0.15-1.965-0.417c-0.214-0.272-0.427-0.642-0.496-1.042c-0.098-0.568,0.241-1-0.159-1.395
		c-0.252-0.05-0.524,0.021-0.688,0.112c-0.799,0.444,0.02,1.979,0.319,2.389c0.126,0.17,0.343,0.299,0.417,0.513
		c-0.032,0.053-0.064,0.107-0.096,0.161c-0.011,0.005-0.021,0.011-0.032,0.016c-0.593-0.078-1.441-0.852-1.598-1.378
		c-0.119-0.397-0.004-1.059-0.336-1.235c-0.417-0.186-0.906,0.527-0.798,1.042c0.132,0.634,0.45,0.786,0.686,1.234
		c-0.026,0.064-0.052,0.128-0.079,0.193c-0.353,0.062-0.921-0.325-1.246-0.433c-0.819-0.272-1.875-0.386-2.749-0.128
		c-0.366,0.108-0.936,0.205-0.991,0.61c-0.063,0.457,0.428,0.628,0.702,0.77c0.667,0.341,1.555,0.475,2.494,0.32
		c0.398-0.066,1.272-0.26,1.598-0.112c-0.042,0.217-0.269,0.286-0.416,0.401c-0.254,0.198-1.206,1.913-0.368,2.036
		c0.444,0.065,0.661-0.406,0.799-0.673c0.326-0.633,1.014-2.213,2.061-1.716c0,0.016,0,0.032,0,0.048
		c-0.164,0.155-0.33,0.311-0.495,0.465c-0.336,0.445-0.685,1.033-0.879,1.588c-0.157,0.447-0.064,1.042,0.272,1.202
		c0.712-0.005,0.728-0.792,0.896-1.346c0.22-0.734,0.466-1.357,1.054-1.715c0.194-0.119,0.421-0.16,0.735-0.161
		c0.936,0,1.197,0.534,1.854,0.818c0.119,0.051,0.28,0.149,0.448,0.144c0.365-0.011,0.845-0.162,1.103-0.352
		c0.195-0.143,0.33-0.372,0.576-0.465c0.327-0.125,0.637-0.027,1.007-0.048c0,0.276,0.024,0.541,0.096,0.753
		c0,0.017,0,0.032,0,0.048c-2.95-0.004-5.321,1.014-6.839,2.565c-0.358,0.366-1,0.929-1.199,1.411
		c-0.011,0.021-0.021,0.042-0.032,0.064c2.682,0.318,4.896-0.54,6.535-1.571c0.4-0.283,0.799-0.566,1.199-0.849
		c0.25-0.208,0.5-0.417,0.751-0.625c0.208,0.251,0.416,0.502,0.623,0.753c-0.213,0.142-0.339,0.426-0.559,0.577
		c-0.601,0.412-1.322,0.486-1.71,1.107c-0.208,0.332-0.151,0.872-0.256,1.314c-0.167,0.711-0.569,1.119-1.262,1.282
		C9.496,22.379,9.3,21.4,8.38,21.4c-0.17,0.15-0.216,0.287-0.288,0.545c-0.227,0.813,0.957,1.038,1.582,1.075
		c0.47,0.027,1.278-0.28,1.358,0.08c-0.3,0.314-1.228,0.855-1.885,0.722c-0.398-0.081-0.9-0.552-1.375-0.336
		c-0.322,0.805,0.466,1.379,1.23,1.331c0.222-0.014,0.527-0.164,0.719-0.097c0.076,0.042,0.111,0.108,0.112,0.225
		c-0.24,0.267-0.558,0.456-0.847,0.673c-0.656,0.497-1.257,1.28-1.55,2.132c-0.118,0.34-0.395,1.241-0.033,1.491
		c0.421,0.29,0.925-0.182,1.166-0.352c0.727-0.514,1.111-1.286,1.487-2.148c0.12-0.275,0.304-1.011,0.527-1.139
		c0.032-0.025,0.022-0.021,0.08-0.032c0.1,0.181,0.069,0.462,0.144,0.69c0.116,0.353,0.629,1.063,0.911,1.25
		c0.18,0.12,0.5,0.13,0.623-0.047c0.189-0.271,0.054-0.693-0.079-0.914c-0.203-0.278-0.405-0.556-0.607-0.833
		c-0.325-0.504-0.465-1.569,0.063-1.94c0.006,0,0.011,0,0.016,0c0.096,0.173,0.081,0.438,0.16,0.641
		c0.241,0.617,0.669,1.399,1.166,1.78c0.176,0.134,0.74,0.49,0.975,0.16c0.307-0.43-0.199-0.874-0.399-1.074
		c-0.47-0.47-1.543-1.401-1.246-2.469c0.341-1.224,1.527-1.015,2.125-1.827c0.161-0.22,0.357-0.786,0.288-1.187
		c-0.038-0.216-0.164-0.453-0.112-0.737c0.073-0.397,0.352-0.565,0.448-0.898c0.25,0.107,0.5,0.214,0.75,0.321
		c-0.908,1.48-1.839,4.119-1.374,6.525c0.181,0.936,0.475,1.771,0.799,2.484c0.011,0,0.022,0,0.032,0
		c0.342-0.341,0.559-0.858,0.798-1.298c0.471-0.868,0.775-1.848,1.007-2.982c0.026-0.379,0.053-0.759,0.08-1.139
		c0.006-0.375,0.01-0.748,0.016-1.122c-0.042-0.465-0.085-0.93-0.128-1.396c-0.053-0.321-0.106-0.642-0.16-0.962
		c0.301-0.085,0.667-0.149,0.942-0.177c0.055,0.246,0.178,0.452,0.224,0.737c0.051,0.32-0.036,0.657-0.08,0.914
		c-0.07,0.406,0.044,0.818,0.159,1.122c0.32,0.85,1.566,0.746,1.566,2.052c0,0.229,0.011,0.449-0.048,0.625
		c-0.125,0.379-0.431,0.865-0.751,1.059c-0.393,0.236-0.852,0.279-1.039,0.721c0.042,0.496,0.597,0.829,1.087,0.609
		c0.536-0.241,0.996-0.882,1.23-1.427c0.112-0.261,0.071-0.663,0.448-0.673c0.1,0.166,0.08,0.463,0.08,0.737
		c0,0.586-0.197,1.18-0.528,1.443c-0.299,0.238-0.634,0.397-0.815,0.754c0.003,0.442,0.616,0.567,1.008,0.416
		c0.517-0.199,0.838-0.761,0.975-1.346c0.069-0.049,0.105-0.068,0.239-0.064c0.245,0.261,0.176,0.986,0.272,1.378
		c0.255,1.054,0.676,1.866,1.359,2.485c0.173,0.158,0.513,0.588,0.894,0.449c0.43-0.157,0.411-1.018,0.288-1.555
		c-0.295-1.279-1.236-2-1.822-2.999c0-0.037,0-0.074,0-0.112c0.196-0.032,0.353,0.062,0.512,0.127
		c0.502,0.211,2.408,0.039,1.965-0.688c-0.389-0.64-1.318-0.135-2.045-0.256c-0.494-0.083-0.881-0.211-1.167-0.497
		c-0.138-0.139-0.276-0.275-0.255-0.529c0.276,0.011,0.43,0.144,0.671,0.192c0.74,0.149,1.945,0.003,2.333-0.256
		c0.156-0.104,0.492-0.329,0.383-0.625c-0.131-0.363-0.673-0.352-1.07-0.241c-0.861,0.241-2.046,0.57-2.764-0.063
		c-0.227-0.201-0.479-0.619-0.543-0.963c-0.116-0.617,0.198-1.308-0.032-1.859c-0.135-0.322-0.558-0.7-0.879-0.833
		c-0.229-0.097-0.486-0.12-0.671-0.257c-0.28-0.208-0.371-0.582-0.576-0.866c0.184-0.185,0.447-0.272,0.608-0.481
		c0.011,0,0.021,0,0.031,0c0.218,0.331,0.437,0.663,0.656,0.994c0.255,0.321,0.51,0.641,0.767,0.962
		c1.137,1.443,3.732,3.032,6.088,3.046c0.005-0.006,0.01-0.011,0.016-0.017c-0.201-0.744-0.845-1.592-1.279-2.148
		c-1.01-1.295-2.292-2.269-3.883-2.982c-0.539-0.242-1.12-0.553-1.726-0.721c0.074-0.305,0.253-0.561,0.304-0.914
		c0.297,0.042,0.597,0.078,0.83,0.192c0.543,0.266,0.967,0.923,1.743,0.93c0.658,0.005,1.386-0.672,2.029-0.562
		c0.338,0.058,0.64,0.257,0.879,0.433c0.312,0.229,0.607,0.755,0.688,1.203c0.086,0.488-0.266,1.258,0.176,1.427
		c0.128,0.049,0.262,0.004,0.352-0.016c0.496-0.114,0.767-0.377,0.638-1.042c-0.173-0.896-0.646-1.333-1.055-1.956
		c0.026-0.048,0.053-0.096,0.08-0.145c0.235-0.102,0.525,0.175,0.687,0.272c0.389,0.235,0.816,0.587,0.959,1.059
		c0.027,0.224,0.054,0.448,0.08,0.673c0.043,0.202,0.129,0.378,0.191,0.545c0.527,0.179,0.981-0.429,0.863-1.042
		c-0.103-0.535-0.396-0.859-0.688-1.203c0.014-0.1,0.052-0.158,0.112-0.208c0.324-0.048,0.913,0.346,1.23,0.449
		c0.865,0.28,1.872,0.382,2.717,0.128c0.379-0.114,0.917-0.199,1.007-0.593C33.716,15.962,33.207,15.769,32.959,15.641z
		 M16.707,13.27c0.391,0.004,0.659,0.119,0.943,0.208c-0.235,0.336-0.469,0.673-0.704,1.01c-0.026,0.021-0.053,0.042-0.08,0.064
		c-0.175-0.396-0.351-0.791-0.527-1.187C16.424,13.297,16.6,13.315,16.707,13.27z M15.685,13.637
		c0.186,0.401,0.373,0.802,0.559,1.202c-0.432-0.037-0.863-0.075-1.294-0.112C15.013,14.2,15.399,13.944,15.685,13.637z
		 M15.445,16.571c-0.004,0-0.011,0-0.017,0c-0.276-0.215-0.521-0.699-0.542-1.154c0.426,0.037,0.852,0.075,1.278,0.112
		C15.924,15.877,15.685,16.224,15.445,16.571z M17.251,17.1c-0.465,0.098-0.862-0.004-1.247-0.112
		c0.24-0.342,0.48-0.685,0.719-1.026c0.153,0.114,0.44,0.904,0.528,1.122C17.251,17.089,17.251,17.095,17.251,17.1z M17.89,16.812
		c-0.17-0.379-0.341-0.759-0.511-1.138c0.415,0.037,0.831,0.074,1.246,0.112c0.006,0.011,0.01,0.021,0.016,0.032
		C18.46,16.228,18.264,16.6,17.89,16.812z M18.737,15.096c-0.426-0.037-0.852-0.075-1.279-0.112
		c0.107-0.402,0.543-0.717,0.735-1.074c0.357,0.171,0.435,0.74,0.544,1.17C18.737,15.086,18.737,15.091,18.737,15.096z"/>
</g>
</svg>
