<?xml version="1.0" encoding="utf-8"?>
<!-- Generator: Adobe Illustrator 14.0.0, SVG Export Plug-In . SVG Version: 6.00 Build 43363)  -->
<!DOCTYPE svg PUBLIC "-//W3C//DTD SVG 1.1//EN" "http://www.w3.org/Graphics/SVG/1.1/DTD/svg11.dtd">
<svg version="1.1" id="Layer_1" xmlns="http://www.w3.org/2000/svg" xmlns:xlink="http://www.w3.org/1999/xlink" x="0px" y="0px"
	 width="38.644px" height="52.25px" viewBox="0 0 38.644 52.25" enable-background="new 0 0 38.644 52.25" xml:space="preserve">
<g>
	<path fill="#FFFFFF" d="M37.878,18.07c0.256-0.435,0.512-0.869,0.766-1.303c-0.232-0.402-0.463-0.806-0.696-1.208
		c-0.21-0.096-0.639-0.047-0.927-0.047c-0.82,0-1.641,0-2.459,0c0.386-0.705,0.772-1.41,1.159-2.116
		c-0.231-0.396-0.464-0.791-0.695-1.186c-0.116-0.104-1.179-0.053-1.438-0.046c-0.596,1.062-1.191,2.123-1.787,3.185
		c-0.434,0.007-0.865,0.016-1.298,0.023c0.076-0.385,0.642-1.299,0.881-1.605c-0.083-0.476-0.491-0.798-0.649-1.232
		c-0.323-0.147-1.045-0.052-1.461-0.046c-0.278,0.496-0.558,0.992-0.836,1.488c-0.008,0-0.016,0-0.022,0
		c-0.711-1.225-1.424-2.45-2.135-3.674c0.571,0,1.146,0,1.718,0c0.238-0.411,0.479-0.822,0.719-1.232
		c-0.231-0.396-0.465-0.791-0.695-1.187c-0.154-0.137-1.682-0.076-2.042-0.069c0.209-0.38,0.418-0.76,0.626-1.14
		c1.276,0.008,2.553,0.016,3.828,0.024c0.239-0.403,0.479-0.807,0.719-1.209c-0.23-0.419-0.464-0.838-0.694-1.256
		c-0.798-0.007-1.595-0.015-2.391-0.023c0.55-0.977,1.1-1.953,1.646-2.929c-0.24-0.426-0.479-0.853-0.72-1.279
		c-0.493,0-0.988,0-1.484,0c-0.548,0.969-1.097,1.938-1.646,2.906c-0.007,0-0.015,0-0.022,0c-0.395-0.667-0.788-1.333-1.184-2
		c-0.321-0.149-1.045-0.053-1.462-0.047c-0.238,0.411-0.479,0.822-0.719,1.232c0.611,1.047,1.222,2.093,1.833,3.139
		c-0.209,0.364-0.418,0.729-0.627,1.093c-0.016,0.008-0.03,0.016-0.046,0.023c-0.303-0.511-0.604-1.023-0.904-1.535
		c-0.116-0.104-1.179-0.053-1.438-0.047c-0.232,0.403-0.466,0.807-0.696,1.209c0.286,0.503,0.571,1.008,0.857,1.512
		c0,0.008,0,0.015,0,0.022c-1.424,0-2.846,0-4.269,0c0.278-0.488,0.558-0.976,0.835-1.464c0.074-0.14-0.538-0.984-0.627-1.232
		c-0.322-0.148-1.044-0.053-1.461-0.047c-0.333,0.574-0.665,1.147-0.998,1.722c-0.015,0.007-0.03,0.015-0.046,0.023
		c-0.217-0.38-0.434-0.76-0.649-1.14c0.643-1.085,1.283-2.17,1.926-3.255c-0.225-0.418-0.448-0.837-0.672-1.256
		c-0.479,0-0.959,0-1.438,0c-0.402,0.683-0.805,1.365-1.207,2.046c-0.229-0.114-0.354-0.569-0.486-0.791
		C11.954,1.411,11.544,0.705,11.135,0c-0.495,0-0.99,0-1.485,0c-0.23,0.411-0.464,0.821-0.694,1.232
		c0.041,0.32,1.385,2.622,1.622,2.883c0,0.023,0,0.046,0,0.07c-0.689,0.19-1.614,0.052-2.39,0.046
		c-0.23,0.411-0.463,0.822-0.695,1.232c0.232,0.396,0.465,0.791,0.695,1.186c0.153,0.133,0.769,0.047,1.021,0.047
		c0.928-0.008,1.855-0.016,2.783-0.024c0.208,0.365,0.417,0.729,0.626,1.093c0,0.008,0,0.015,0,0.023
		c-0.664,0.016-1.33,0.031-1.994,0.047c-0.232,0.411-0.465,0.821-0.696,1.232c0.24,0.41,0.479,0.821,0.72,1.232
		c0.571-0.008,1.146-0.016,1.717-0.023c-0.695,1.232-1.393,2.465-2.088,3.697c-0.151-0.07-0.811-1.27-0.882-1.488
		c-0.472,0-0.943,0-1.415,0c-0.24,0.403-0.479,0.806-0.72,1.209c0.295,0.55,0.588,1.101,0.882,1.651
		c-0.433-0.007-0.866-0.015-1.299-0.024c-0.596-1.054-1.191-2.107-1.786-3.161c-0.479,0-0.959,0-1.438,0
		c-0.23,0.411-0.464,0.821-0.695,1.232c0.387,0.682,0.772,1.364,1.16,2.046c0,0.023,0,0.047,0,0.07c-1.105,0-2.213,0-3.317,0
		C0.51,15.919,0.255,16.329,0,16.74c0.238,0.434,0.479,0.868,0.719,1.302c1.105,0,2.212,0,3.317,0
		c0.023,0.008,0.047,0.015,0.069,0.023c-0.395,0.697-0.789,1.395-1.184,2.092c0.231,0.396,0.465,0.792,0.695,1.186
		c0.115,0.104,1.179,0.053,1.438,0.046c0.618-1.1,1.236-2.201,1.854-3.302c0.435-0.015,0.866-0.031,1.3-0.046
		c0.008,0.015,0.016,0.031,0.022,0.046c-0.325,0.59-0.649,1.178-0.975,1.767c0.217,0.388,0.434,0.776,0.648,1.163
		c0.323,0.149,1.046,0.053,1.462,0.046c0.278-0.496,0.558-0.992,0.835-1.488c0.009,0,0.017,0,0.023,0
		c0.209,0.356,0.418,0.713,0.627,1.07c0.502,0.875,1.005,1.751,1.508,2.627c-0.563-0.008-1.13-0.016-1.693-0.023
		c-0.247,0.418-0.494,0.836-0.742,1.255c0.239,0.411,0.479,0.822,0.72,1.232c0.595,0,1.19,0,1.786,0
		c-0.209,0.379-0.418,0.76-0.626,1.14c-1.199-0.008-2.398-0.016-3.597-0.024c-0.239,0.403-0.479,0.806-0.72,1.209
		c0.217,0.395,0.434,0.791,0.649,1.186c0.378,0.223,1.842,0.1,2.436,0.093c0.009,0.016,0.017,0.031,0.023,0.046
		c-0.549,0.969-1.099,1.938-1.646,2.907c0.231,0.411,0.464,0.821,0.695,1.232c0.328,0.151,1.062,0.053,1.485,0.046
		c0.549-0.969,1.098-1.938,1.646-2.907c0.017-0.007,0.031-0.016,0.046-0.023c0.396,0.674,0.79,1.349,1.185,2.022
		c0.316,0.147,1.026,0.053,1.438,0.047c0.231-0.403,0.464-0.806,0.696-1.209c0.034-0.227-0.328-0.613-0.44-0.813
		c-0.487-0.829-0.976-1.659-1.462-2.488c0.201-0.372,0.401-0.744,0.604-1.116c0.022-0.015,0.047-0.031,0.07-0.046
		c0.331,0.565,0.664,1.131,0.996,1.697c0.117,0.105,1.199,0.052,1.463,0.046c0.23-0.411,0.464-0.822,0.695-1.232
		c-0.286-0.496-0.573-0.992-0.858-1.488c1.415,0,2.829,0,4.244,0c-0.285,0.503-0.57,1.008-0.856,1.511
		c0.216,0.388,0.433,0.776,0.648,1.163c0.322,0.148,1.045,0.053,1.463,0.046c0.323-0.55,0.648-1.101,0.974-1.651
		c0.188,0.085,0.578,0.896,0.696,1.116c-0.636,1.084-1.27,2.17-1.902,3.255c0.225,0.388,0.448,0.775,0.673,1.163
		c0.317,0.147,1.027,0.053,1.438,0.047c0.401-0.683,0.804-1.364,1.205-2.046c0.017-0.007,0.03-0.016,0.047-0.023
		c0.563,0.977,1.13,1.953,1.693,2.93c0.473,0,0.943,0,1.415,0c0.255-0.434,0.51-0.869,0.766-1.302
		c-0.557-0.968-1.113-1.938-1.671-2.906c0.798-0.016,1.595-0.031,2.391-0.047c0.239-0.395,0.479-0.79,0.719-1.186
		c-0.216-0.403-0.433-0.806-0.647-1.209c-0.243-0.14-0.71-0.046-1.046-0.046c-0.936,0.007-1.87,0.015-2.807,0.023
		c-0.232-0.202-0.603-0.841-0.673-1.163c0.673,0,1.346,0,2.019,0c0.239-0.403,0.479-0.806,0.72-1.209
		c-0.225-0.411-0.449-0.822-0.673-1.232c-0.579-0.008-1.16-0.016-1.74-0.023c-0.007-0.016-0.017-0.031-0.022-0.046
		c0.688-1.201,1.377-2.403,2.064-3.604c0.022-0.016,0.046-0.031,0.069-0.046c0.278,0.496,0.557,0.992,0.835,1.488
		c0.479,0,0.959,0,1.438,0c0.232-0.395,0.464-0.791,0.696-1.186c-0.088-0.509-0.711-1.341-0.976-1.791
		c0.427-0.015,0.852-0.031,1.275-0.046c0.636,1.116,1.269,2.232,1.903,3.348c0.472,0,0.942,0,1.414,0
		c0.239-0.396,0.479-0.79,0.72-1.187c-0.387-0.705-0.773-1.41-1.159-2.116c0.015-0.015,0.03-0.031,0.046-0.046
		C35.698,18.055,36.788,18.062,37.878,18.07z M23.866,11.118c0.812,1.403,1.624,2.806,2.437,4.208
		c-1.607,0.009-3.216,0.017-4.824,0.024C22.273,13.939,23.069,12.528,23.866,11.118z M21.523,10.002
		c-0.766,1.333-1.531,2.667-2.297,4c-0.032,0.044-0.002,0.014-0.046,0.046c-0.559-0.984-1.113-1.969-1.671-2.953
		c-0.155-0.262-0.64-0.814-0.604-1.116C18.446,9.986,19.985,9.994,21.523,10.002z M14.656,11.35c0.759,1.333,1.518,2.667,2.273,4
		c-1.492-0.007-2.984-0.015-4.478-0.024c-0.039,0-0.076,0-0.115,0C13.11,14.001,13.884,12.675,14.656,11.35z M14.61,22.046
		c-0.022,0.016-0.047,0.031-0.068,0.046c-0.789-1.387-1.578-2.775-2.366-4.162c1.592,0,3.186,0,4.777,0c0,0.007,0,0.015,0,0.023
		C16.173,19.318,15.391,20.682,14.61,22.046z M21.687,23.581c-1.664,0-3.326,0-4.988,0c0.827-1.442,1.654-2.884,2.482-4.326
		c0.835,1.434,1.67,2.869,2.506,4.302C21.687,23.565,21.687,23.573,21.687,23.581z M23.982,22.302
		c-0.302-0.149-0.498-0.823-0.673-1.116c-0.626-1.085-1.253-2.17-1.879-3.255c1.646,0.007,3.295,0.015,4.94,0.023
		c0.031,0,0.062,0,0.094,0C25.638,19.403,24.81,20.853,23.982,22.302z"/>
</g>
</svg>
