<?xml version="1.0" encoding="utf-8"?>
<!-- Generator: Adobe Illustrator 14.0.0, SVG Export Plug-In . SVG Version: 6.00 Build 43363)  -->
<!DOCTYPE svg PUBLIC "-//W3C//DTD SVG 1.1//EN" "http://www.w3.org/Graphics/SVG/1.1/DTD/svg11.dtd">
<svg version="1.1" id="Layer_1" xmlns="http://www.w3.org/2000/svg" xmlns:xlink="http://www.w3.org/1999/xlink" x="0px" y="0px"
	 width="37.342px" height="42.486px" viewBox="0 0 37.342 42.486" enable-background="new 0 0 37.342 42.486" xml:space="preserve">
<g>
	<path fill="#FFFFFF" d="M23.986,14.871c-0.007-0.897-0.013-1.794-0.019-2.691c-0.026-0.006-0.051-0.013-0.076-0.019
		c-1.049,0.591-2.101,1.183-3.149,1.774c-0.117,0.264-0.018,0.751-0.018,1.084c0.005,0.872,0.012,1.744,0.018,2.616
		c0.361-0.021,0.726-0.363,0.994-0.524c0.737-0.41,1.476-0.822,2.213-1.233C24.089,15.637,23.956,15.201,23.986,14.871z
		 M23.331,15.449c-0.632,0.361-1.264,0.722-1.896,1.084c-0.005,0-0.013,0-0.019,0c-0.005-0.729-0.014-1.458-0.02-2.187
		c0.625-0.362,1.251-0.723,1.875-1.084C23.361,13.386,23.334,15.129,23.331,15.449z"/>
	<path fill="#FFFFFF" d="M16.636,16.906c0.05-0.383,0.08-2.768,0-2.915c-0.15-0.225-0.586-0.346-0.824-0.486
		c-0.781-0.443-1.563-0.885-2.343-1.327c-0.021,0.012-0.038,0.024-0.058,0.038c-0.007,0.877-0.014,1.756-0.02,2.634
		c0,0.333-0.044,0.784,0.02,1.028c1.057,0.598,2.111,1.196,3.168,1.794C16.726,17.536,16.606,17.138,16.636,16.906z M15.999,16.478
		c-0.02,0.013-0.037,0.024-0.057,0.038c-0.02,0.006-0.037,0.012-0.056,0.019c-0.602-0.355-1.199-0.711-1.801-1.066
		c-0.099-0.135-0.032-1.877-0.038-2.112c0.02-0.019,0.038-0.037,0.057-0.056c0.612,0.342,1.227,0.685,1.838,1.028
		C16.107,14.629,15.984,16.083,15.999,16.478z"/>
	<path fill="#FFFFFF" d="M26.911,19.859c-0.269-0.147-0.573-0.493-0.938-0.504c-1.031,0.61-2.062,1.22-3.095,1.831
		c0,0.025,0,0.05,0,0.075c1.062,0.617,2.125,1.234,3.188,1.85c1.03-0.604,2.061-1.208,3.093-1.812
		c0.012-0.038,0.024-0.075,0.037-0.112C28.436,20.744,27.675,20.301,26.911,19.859z M26.087,22.326
		c-0.406-0.068-1.541-0.838-1.912-1.083c0-0.013,0-0.025,0-0.037c0.611-0.362,1.225-0.723,1.837-1.084
		c0.549,0.068,1.322,0.861,1.894,1.047c0.007,0.012,0.013,0.025,0.021,0.038C27.659,21.585,26.497,21.97,26.087,22.326z"/>
	<path fill="#FFFFFF" d="M13.806,20.812c-0.521-0.307-1.07-0.606-1.596-0.934c-0.247-0.155-0.556-0.443-0.88-0.486
		c-0.751,0.448-1.501,0.897-2.25,1.345c-0.232,0.128-0.755,0.299-0.862,0.542c1.036,0.616,2.073,1.232,3.112,1.849
		c0.251-0.019,0.406-0.195,0.581-0.298c0.862-0.492,1.726-0.984,2.586-1.476c0.021-0.031,0.038-0.062,0.059-0.094
		C14.356,21.06,14.059,20.961,13.806,20.812z M13.224,21.28c-0.612,0.36-1.226,0.722-1.837,1.083
		c-0.396-0.072-1.491-0.827-1.875-1.065c0-0.013,0-0.024,0-0.038c0.257-0.327,1.438-0.833,1.855-1.104
		c0.618,0.355,1.237,0.71,1.855,1.065C13.224,21.243,13.224,21.261,13.224,21.28z"/>
	<path fill="#FFFFFF" d="M35.892,29.578c-0.489-0.076-0.771,0.267-1.125,0.354c-0.229-0.2-0.717-0.289-0.881-0.542
		c-0.014-0.013-0.024-0.025-0.036-0.038c0.332-0.276,2.373-0.687,1.686-1.477c-0.52-0.598-2.148,0.816-2.737,0.879
		c-0.2,0.021-1.164-0.644-1.387-0.768c0-0.012,0-0.024,0-0.037c0.837-0.392,1.674-0.784,2.512-1.177
		c0.287-0.135,0.826-0.304,0.524-0.804c-0.269-0.447-0.835-0.162-1.18,0c-0.756,0.343-1.515,0.686-2.271,1.028
		c-0.234,0.102-0.459,0.31-0.77,0.318c-0.288-0.185-0.726-1.239-0.824-1.625c-0.53,0.056-1.062,0.112-1.595,0.167
		c0.008-0.542,0.015-1.084,0.021-1.625c0.157-0.28,0.926-0.62,1.218-0.822c1.106-0.723,2.214-1.445,3.319-2.167
		c0.074-0.205-0.759-0.616-0.956-0.748c-1.163-0.759-2.326-1.52-3.487-2.28c-0.146-0.292-0.062-1.188-0.02-1.625
		c0.355-0.155,1.066,0.104,1.463,0.112c0.175-0.418,0.352-0.835,0.524-1.252c0.15-0.093,0.301-0.187,0.45-0.28
		c0.98,0.449,1.963,0.897,2.942,1.346c0.349,0.152,0.905,0.439,1.162-0.02c0.122-0.213,0.016-0.559-0.13-0.672
		c-0.281-0.105-0.562-0.212-0.845-0.317c-0.655-0.305-1.312-0.611-1.969-0.916c-0.007-0.013-0.013-0.025-0.02-0.038
		c0.208-0.302,1.009-0.56,1.332-0.804c0.617,0.139,2.281,1.441,2.737,0.767c0.124-0.183,0.065-0.547-0.074-0.673
		c-0.133-0.044-0.264-0.088-0.396-0.131c-0.381-0.18-0.763-0.361-1.143-0.542c0-0.019,0-0.038,0-0.056
		c0.312-0.174,0.624-0.349,0.936-0.523c1.505,0.842,3.147-0.616,2.157-2.093c-0.374-0.557-1.383-0.844-2.082-0.393
		c-0.517,0.335-0.614,0.81-0.674,1.569c-0.306,0.157-0.621,0.458-0.976,0.523c0.04-0.627,0.465-2.312-0.376-2.205
		c-0.742,0.094-0.557,2.042-0.693,2.84c-0.449,0.261-0.9,0.523-1.35,0.785c-0.008,0-0.014,0-0.021,0
		c-0.191-0.839,0.765-3.432-0.094-3.625c-0.285-0.064-0.574,0.193-0.636,0.354c-0.114,1.278-0.227,2.554-0.339,3.832
		c-0.058,0.1-0.132,0.162-0.243,0.205c-0.557-0.062-1.112-0.124-1.668-0.186c-0.201,0.486-0.401,0.972-0.603,1.458
		c-0.209,0.03-1.228-0.652-1.442-0.804c-0.106-1.825-0.213-3.65-0.317-5.475c-0.021-0.006-0.039-0.012-0.058-0.019
		c-1.6,0.809-3.198,1.619-4.8,2.429c-0.045,0.01-1.355-0.751-1.405-0.822c-0.008-0.007-0.014-0.013-0.02-0.019
		c0.037-0.268,0.638-0.979,0.824-1.177c-0.048-0.224-0.649-0.957-0.824-1.103c0-0.175,0-0.35,0-0.523
		c0.855-0.624,1.712-1.246,2.568-1.869c0.267-0.181,0.889-0.443,0.636-0.99c-0.075-0.167-0.414-0.383-0.674-0.243
		c-0.183,0.149-0.36,0.299-0.543,0.448c-0.639,0.455-1.275,0.91-1.913,1.364c-0.026,0-0.05,0-0.074,0c0-0.523,0-1.047,0-1.57
		c0.575-0.411,1.149-0.823,1.724-1.234c0.195-0.129,0.484-0.381,0.302-0.747c-0.367-0.733-1.661,0.493-1.987,0.729
		c-0.095-0.128-0.09-0.916-0.02-1.084c0.069-0.1,0.221-0.134,0.318-0.205c0.208-0.152,0.405-0.419,0.507-0.673
		c0.411-1.037-0.532-2.269-1.688-2.038c-1.437,0.288-1.741,2.476-0.281,2.897c0.117,0.251,0.043,0.813,0.037,1.14
		c-0.012,0.006-0.023,0.012-0.037,0.019c-0.48-0.349-0.963-0.698-1.442-1.046c-0.543-0.012-0.92,0.402-0.582,0.859
		c0.15,0.094,0.301,0.187,0.45,0.281c0.273,0.183,1.472,0.947,1.594,1.158c0.007,0.517,0.013,1.034,0.019,1.551
		c-0.012,0.006-0.023,0.012-0.037,0.018c-0.868-0.622-1.737-1.246-2.605-1.868c-0.505-0.224-0.821,0.393-0.6,0.822
		c1.074,0.759,2.149,1.52,3.226,2.28c0.006,0.1,0.012,0.199,0.018,0.299c-0.331,0.442-0.662,0.885-0.993,1.327
		c0.331,0.429,0.662,0.859,0.993,1.289c0,0.006,0,0.012,0,0.019c-0.462,0.269-0.924,0.536-1.387,0.804
		c-0.414-0.038-0.812-0.374-1.144-0.542c-1.269-0.629-2.538-1.258-3.807-1.887c-0.006,0-0.013,0-0.021,0
		c-0.158,0.297-0.032,0.85-0.092,1.233c-0.062,0.952-0.125,1.906-0.188,2.859c-0.062,0.389,0.084,1.007-0.096,1.308
		c-0.075,0.128-1.14,0.714-1.331,0.748c-0.188-0.442-0.375-0.884-0.562-1.327c-0.53-0.235-1.344,0.383-1.949,0
		c-0.101-0.984-0.2-1.968-0.301-2.952C7.182,10.732,7.311,10.125,6.77,9.99C6.467,9.915,6.12,10.22,6.15,10.458
		c0.074,0.559,0.131,1.245,0.225,1.832c0.038,0.398,0.076,0.797,0.112,1.196c-0.007,0.081-0.011,0.087-0.036,0.131
		c-0.431-0.243-0.863-0.486-1.294-0.729c-0.41-0.631,0.112-2.574-0.601-2.859c-0.311-0.125-0.629,0.121-0.693,0.354
		c0.056,0.561,0.112,1.121,0.169,1.682c0,0.044,0,0.087,0,0.13c-0.373-0.065-0.588-0.392-0.938-0.486
		c-0.142-0.276-0.039-0.788-0.245-1.121c-0.554-0.904-2.009-0.963-2.586-0.038c-0.892,1.429,0.938,3.082,2.175,2.037
		c0.299,0.156,0.599,0.312,0.899,0.467c0.019,0.031,0.038,0.062,0.057,0.094c-0.35,0.303-2.063,0.576-1.632,1.345
		c0.069,0.125,0.379,0.328,0.619,0.262c0.688-0.33,1.376-0.661,2.062-0.991c0.535,0.06,0.903,0.57,1.389,0.729
		c0.005,0.019,0.013,0.038,0.019,0.056c-0.104,0.169-0.519,0.255-0.712,0.336C4.569,15.152,4,15.42,3.433,15.688
		c-0.314,0.134-0.811,0.305-0.545,0.803c0.239,0.45,0.792,0.178,1.125,0.039c0.962-0.449,1.925-0.898,2.887-1.346
		c0.741,0.045,0.898,1.036,1.163,1.569c0.525-0.023,1.181-0.314,1.537-0.056c0,0.511,0,1.021,0,1.532
		c-0.067,0.211-0.959,0.65-1.183,0.804c-1.13,0.742-2.262,1.483-3.394,2.224c-0.006,0.025-0.013,0.05-0.02,0.075
		c1.163,0.772,2.325,1.544,3.487,2.318c0.293,0.195,0.868,0.397,1.031,0.709c-0.006,0.468-0.012,0.935-0.02,1.402
		c-0.006,0.019-0.013,0.038-0.019,0.056c-0.5-0.056-1-0.113-1.501-0.168c-0.212,0.504-0.425,1.008-0.637,1.513
		c-0.075,0.05-0.149,0.1-0.227,0.149c-0.354-0.018-0.555-0.23-0.823-0.336c-0.713-0.324-1.426-0.648-2.139-0.972
		C3.802,25.86,3.243,25.48,2.921,25.91c-0.151,0.203-0.098,0.609,0.095,0.729c0.536,0.225,1.074,0.449,1.611,0.673
		c0.373,0.17,0.836,0.532,1.274,0.579c0.007,0.025,0.013,0.05,0.021,0.075c-0.444,0.261-0.889,0.523-1.332,0.785
		c-0.604-0.145-2.335-1.428-2.812-0.86c-0.588,0.698,1.272,1.245,1.65,1.421c0.018,0.012,0.036,0.024,0.056,0.037
		c-0.074,0.093-0.811,0.561-0.918,0.579c-0.052,0.008-0.683-0.317-0.919-0.354c-0.866-0.137-1.779,0.788-1.632,1.663
		c0.176,1.041,1.322,1.806,2.382,1.103c0.483-0.323,0.559-0.78,0.656-1.458c0.27-0.169,0.621-0.462,0.955-0.523
		c-0.043,0.612-0.437,2.165,0.338,2.094c0.799-0.074,0.605-1.938,0.731-2.729c0.337-0.221,0.992-0.697,1.387-0.784
		c-0.084,1.006-0.186,2.062-0.317,3.008c-0.043,0.299,0.279,0.602,0.619,0.523c0.477-0.111,0.378-0.552,0.469-1.064
		c0.101-1.016,0.2-2.031,0.3-3.046c0.328-0.672,1.274-0.128,1.932-0.225c0.306-0.344,0.252-1.104,0.675-1.327
		c0.247,0.036,1.285,0.666,1.425,0.841c0.106,1.806,0.214,3.613,0.318,5.419c0.014,0.012,0.025,0.025,0.037,0.037
		c0.465-0.059,0.942-0.457,1.331-0.653c1.163-0.58,2.326-1.159,3.487-1.738c0.505,0.058,0.836,0.544,1.294,0.691
		c-0.05,0.294-0.676,1.03-0.881,1.251c0.325,0.43,0.649,0.86,0.976,1.29c0,0.118,0,0.237,0,0.355
		c-0.152,0.261-0.628,0.464-0.883,0.635c-0.756,0.536-1.512,1.072-2.268,1.607c-0.074,0.06-0.057,0.125-0.095,0.224
		c-0.187,0.49,0.157,0.701,0.618,0.691c0.356-0.329,0.776-0.578,1.183-0.859c0.475-0.343,0.949-0.686,1.425-1.028
		c0.094,0.127,0.062,1.396,0.02,1.607c-0.682,0.467-1.361,0.935-2.044,1.401c-0.334,0.444,0.032,0.87,0.562,0.86
		c0.487-0.349,0.975-0.698,1.462-1.047c0.133,0.183,0.043,0.849,0.037,1.122c-0.305,0.172-0.579,0.315-0.769,0.598
		c-0.664,0.994,0.075,2.142,1.013,2.336c1.861,0.385,2.348-2.286,0.862-2.879c-0.007-0.367-0.013-0.735-0.019-1.103
		c0.012-0.006,0.023-0.012,0.037-0.019c0.328,0.241,1.616,1.457,1.986,0.729c0.075-0.147,0.039-0.458-0.037-0.579
		c-0.661-0.461-1.324-0.922-1.986-1.383c0-0.005,0-0.012,0-0.019c0-0.523,0-1.046,0-1.569c0.019,0,0.037,0,0.057,0
		c0.836,0.604,1.674,1.208,2.512,1.812c0.512,0.227,0.844-0.435,0.581-0.841c-1.019-0.717-2.037-1.433-3.057-2.149
		c-0.494-0.692,0.592-1.386,0.731-1.832c-0.101-0.174-0.892-1.052-0.824-1.214c0.467-0.268,0.938-0.536,1.403-0.804
		c0.438,0.041,0.866,0.399,1.221,0.579c0.882,0.437,1.764,0.872,2.644,1.308c0.317,0.161,0.742,0.514,1.125,0.542
		c0.106-1.793,0.214-3.588,0.319-5.381c0.26-0.196,1.053-0.745,1.425-0.748c0.181,0.417,0.362,0.835,0.544,1.252
		c0.336,0.191,1.012-0.178,1.387-0.131c0.15,0.082,0.301,0.163,0.451,0.244c0.063,0.125,0.017,0.265,0.057,0.466
		c0.094,0.879,0.188,1.757,0.28,2.636c0.101,0.525-0.04,0.974,0.47,1.102c0.349,0.088,0.678-0.242,0.617-0.561
		c-0.17-0.893-0.302-1.987-0.318-2.952c0.409,0.055,1.031,0.567,1.389,0.766c0.14,0.8-0.064,2.661,0.712,2.729
		c0.792,0.068,0.418-1.475,0.358-2.057c0.018-0.013,0.036-0.024,0.055-0.037c0.254,0.173,0.729,0.307,0.9,0.56
		c0.006,0.144,0.012,0.288,0.018,0.431c0.062,0.282,0.21,0.616,0.396,0.785c0.825,0.759,2.083,0.513,2.513-0.449
		C37.7,30.578,36.798,29.716,35.892,29.578z M11.068,16.252c0.368-0.211,0.737-0.423,1.106-0.635c0.163-0.293,0.05-0.815,0.11-1.215
		c0.075-1.202,0.15-2.404,0.227-3.607c0.019-0.025,0.036-0.05,0.057-0.075c1.456,0.729,2.912,1.458,4.368,2.187
		c0.462-0.078,0.774-0.478,1.181-0.636c0.007,0,0.015,0,0.021,0c0,1.912,0,3.826,0,5.737c-0.17,0.149-1.015-0.041-1.274,0.056
		c-0.137,0.079-0.602,0.917-0.656,1.103c-0.32,0.017-1.094-0.577-1.389-0.748c-1.249-0.716-2.501-1.433-3.749-2.148
		C11.068,16.266,11.068,16.258,11.068,16.252z M10.544,25.297c-0.008-0.006-0.014-0.012-0.021-0.018c0.053-0.38,0.103-0.891,0-1.252
		c-0.154-0.303-0.748-0.502-1.03-0.692c-0.706-0.472-1.413-0.946-2.12-1.419c-0.261-0.182-0.705-0.334-0.881-0.598
		c0.161-0.258,0.915-0.624,1.2-0.804c0.95-0.622,1.9-1.246,2.852-1.868c0.184-0.304-0.005-0.953,0.093-1.346
		c1.649,0.934,3.302,1.869,4.95,2.803c0.007,0.012,0.013,0.025,0.02,0.037c-0.2,0.355-0.399,0.71-0.602,1.066
		c0.041,0.301,0.663,0.981,0.62,1.177c-1.67,0.972-3.339,1.944-5.008,2.915C10.593,25.297,10.567,25.297,10.544,25.297z
		 M17.05,29.688c-0.405,0.053-0.821,0.388-1.162,0.561c-1.062,0.529-2.125,1.059-3.188,1.588c-0.035-0.026-0.031-0.018-0.057-0.056
		c-0.101-1.614-0.199-3.227-0.299-4.84c-0.104-0.184-0.897-0.604-1.125-0.692c0-0.024,0-0.05,0-0.075
		c1.644-0.947,3.286-1.894,4.931-2.841c0.152,0.06,0.581,0.896,0.675,1.084c0.438,0.006,0.874,0.012,1.312,0.018
		c0.006,1.95,0.012,3.9,0.018,5.849C18.091,30.306,17.213,29.795,17.05,29.688z M19.262,12.161c0.368,0.212,0.736,0.423,1.105,0.635
		c0.462-0.06,0.915-0.45,1.312-0.635c1-0.505,2-1.01,3-1.514c0.02,0,0.038,0,0.057,0c0.006,0,0.012,0,0.019,0
		c0.185,0.403,0.037,1.216,0.112,1.719c0.062,1.059,0.127,2.118,0.188,3.177c0.324,0.245,0.757,0.556,1.163,0.691
		c0.006,0.013,0.013,0.025,0.019,0.038c0,0.012,0,0.024,0,0.037c-1.668,0.953-3.338,1.906-5.006,2.86
		c-0.219-0.368-0.438-0.736-0.655-1.103c-0.438-0.006-0.876-0.013-1.312-0.019c-0.007-1.956-0.014-3.912-0.02-5.867
		C19.249,12.172,19.255,12.167,19.262,12.161z M25.205,26.904c-0.1,1.601-0.2,3.202-0.3,4.803c-0.075,0.084-0.914-0.359-1.088-0.448
		c-1.112-0.561-2.227-1.122-3.337-1.682c-0.463,0.081-0.798,0.483-1.2,0.653c-0.007,0-0.013,0-0.019,0c0-1.918,0-3.837,0-5.756
		c0.17-0.149,1.013,0.042,1.273-0.056c0.14-0.081,0.567-0.865,0.637-1.047c0.486,0.097,0.989,0.542,1.389,0.785
		c1.226,0.697,2.451,1.396,3.676,2.093c0.006,0.013,0.012,0.025,0.018,0.038C25.904,26.494,25.555,26.698,25.205,26.904z
		 M26.872,23.84c-0.172,0.283-0.08,1.038-0.072,1.457c-0.007,0.006-0.013,0.013-0.02,0.019c-1.194-0.691-2.388-1.382-3.582-2.074
		c-0.365-0.199-1.216-0.542-1.443-0.841c0.214-0.373,0.427-0.747,0.639-1.121c-0.027-0.212-0.479-0.977-0.619-1.103
		c0-0.025,0-0.05,0-0.075c1.688-0.972,3.375-1.944,5.062-2.916c0.092,0.104,0.043,0.995,0.036,1.271
		c0.483,0.474,1.192,0.781,1.766,1.158c0.762,0.504,1.522,1.009,2.287,1.514c0,0.019,0,0.038,0,0.056
		C29.574,22.07,28.224,22.956,26.872,23.84z"/>
	<path fill="#FFFFFF" d="M24.023,27.521c0-0.307,0.091-0.714-0.02-0.897c-0.163-0.231-0.612-0.357-0.862-0.504
		c-0.773-0.437-1.551-0.873-2.324-1.309c-0.124,0.272,0.011,0.658-0.037,0.972c-0.006,0.909-0.013,1.818-0.019,2.729
		c1.062,0.598,2.125,1.195,3.188,1.793c0.121-0.117,0.026-0.442,0.056-0.691C24.011,28.917,24.018,28.219,24.023,27.521z
		 M23.367,29.146c-0.012,0.006-0.023,0.012-0.036,0.019c-0.194-0.025-1.771-0.93-1.896-1.066c-0.055-0.282-0.047-1.98,0.037-2.149
		c0.632,0.356,1.264,0.71,1.895,1.066C23.367,27.727,23.367,28.438,23.367,29.146z"/>
	<path fill="#FFFFFF" d="M16.692,27.633c-0.007-0.909-0.013-1.818-0.018-2.728c-0.041-0.06-0.032-0.051-0.133-0.056
		c-0.197,0.209-0.532,0.298-0.787,0.448c-0.774,0.455-1.552,0.91-2.324,1.364c0,1.202,0,2.405,0,3.607
		c0.038,0.018,0.074,0.037,0.111,0.055c1.037-0.598,2.075-1.195,3.112-1.793C16.796,28.37,16.693,27.882,16.692,27.633z
		 M15.999,28.175c-0.6,0.342-1.199,0.686-1.801,1.028c-0.022,0-0.05,0-0.073,0c-0.056-0.236-0.096-1.983,0-2.168
		c0.169-0.292,1.439-0.77,1.78-1.065c0.037,0.013,0.074,0.025,0.112,0.038C16.012,26.73,16.006,27.453,15.999,28.175z"/>
</g>
</svg>
